<?xml version="1.0" encoding="UTF-8" standalone="no"?>
<svg
   xmlns:dc="http://purl.org/dc/elements/1.1/"
   xmlns:cc="http://creativecommons.org/ns#"
   xmlns:rdf="http://www.w3.org/1999/02/22-rdf-syntax-ns#"
   xmlns:svg="http://www.w3.org/2000/svg"
   xmlns="http://www.w3.org/2000/svg"
   xmlns:sodipodi="http://sodipodi.sourceforge.net/DTD/sodipodi-0.dtd"
   xmlns:inkscape="http://www.inkscape.org/namespaces/inkscape"
   version="1.1"
   viewBox="-6 -143 107.39741 40"
   width="107.39741pt"
   height="40pt"
   id="svg3420"
   inkscape:version="0.91 r13725"
   sodipodi:docname="probtorch-logo.svg">
  <sodipodi:namedview
     pagecolor="#ffffff"
     bordercolor="#666666"
     borderopacity="1"
     objecttolerance="10"
     gridtolerance="10"
     guidetolerance="10"
     inkscape:pageopacity="0"
     inkscape:pageshadow="2"
     inkscape:window-width="2509"
     inkscape:window-height="1395"
     id="namedview3464"
     showgrid="false"
     inkscape:zoom="2.1653382"
     inkscape:cx="76.017477"
     inkscape:cy="79.919112"
     inkscape:window-x="51"
     inkscape:window-y="1"
     inkscape:window-maximized="1"
     inkscape:current-layer="svg3420"
     fit-margin-top="0"
     fit-margin-left="0"
     fit-margin-right="0"
     fit-margin-bottom="0" />
  <metadata
     id="metadata3422"> Produced by OmniGraffle 7.5 
    <dc:date>2017-11-10 14:38:36 +0000</dc:date>
<rdf:RDF>
  <cc:Work
     rdf:about="">
    <dc:format>image/svg+xml</dc:format>
    <dc:type
       rdf:resource="http://purl.org/dc/dcmitype/StillImage" />
    <dc:title></dc:title>
  </cc:Work>
</rdf:RDF>
</metadata>
  <defs
     id="defs3424" />
  <g
     transform="matrix(0.259778,0,0,0.29156051,-19.209984,-104.99646)"
     id="g4381">
    <g
       transform="matrix(0.67962274,-0.40777366,0.67962274,0.40777366,52.062514,-96.79194)"
       id="g4383">
      <path
         d="m 14,0 60,0 c 11.0457,0 20,8.954305 20,20 l 0,60 c 0,11.0457 -8.9543,20 -20,20 l -60,0 C 2.954305,100 -6,91.0457 -6,80 L -6,20 C -6,8.954305 2.954305,0 14,0 Z"
         id="path4385"
         inkscape:connector-curvature="0"
         style="fill:#f15632;fill-opacity:1;stroke:none;stroke-dasharray:none;stroke-opacity:1" />
      <circle
         cx="44"
         cy="50"
         r="12.50002"
         id="circle4387"
         style="fill:#ffffff;fill-opacity:1;stroke:none;stroke-dasharray:none;stroke-opacity:1" />
      <circle
         cx="69"
         cy="25"
         r="12.50002"
         id="circle4389"
         style="fill:#ffffff;fill-opacity:1;stroke:none;stroke-dasharray:none;stroke-opacity:1" />
      <circle
         cx="19"
         cy="25"
         r="12.50002"
         id="circle4391"
         style="fill:#ffffff;fill-opacity:1;stroke:none;stroke-dasharray:none;stroke-opacity:1" />
      <circle
         cx="19"
         cy="75"
         r="12.50002"
         id="circle4393"
         style="fill:#ffffff;fill-opacity:1;stroke:none;stroke-dasharray:none;stroke-opacity:1" />
      <circle
         cx="69"
         cy="75"
         r="12.50002"
         id="circle4395"
         style="fill:#ffffff;fill-opacity:1;stroke:none;stroke-dasharray:none;stroke-opacity:1" />
    </g>
    <g
       id="g4397">
      <g
         id="g4399"
         transform="matrix(0.64,-0.38932229,0,0.64,40.883055,-5.2211694)">
        <path
           style="fill:#f15632;fill-opacity:1;stroke:none;stroke-dasharray:none;stroke-opacity:1"
           inkscape:connector-curvature="0"
           id="path4401"
           d="m 139,0 60,0 c 11.0457,0 20,8.954305 20,20 l 0,60 c 0,11.0457 -8.9543,20 -20,20 l -60,0 c -11.0457,0 -20,-8.9543 -20,-20 l 0,-60 C 119,8.954305 127.9543,0 139,0 Z" />
        <circle
           style="fill:#ffffff;fill-opacity:1;stroke:none;stroke-dasharray:none;stroke-opacity:1"
           id="circle4403"
           r="12.50002"
           cy="50"
           cx="169" />
        <circle
           style="fill:#ffffff;fill-opacity:1;stroke:none;stroke-dasharray:none;stroke-opacity:1"
           id="circle4405"
           r="12.50002"
           cy="25"
           cx="194" />
        <circle
           style="fill:#ffffff;fill-opacity:1;stroke:none;stroke-dasharray:none;stroke-opacity:1"
           id="circle4407"
           r="12.50002"
           cy="75"
           cx="144" />
      </g>
      <g
         id="g4409"
         transform="matrix(0.64,0.38845852,0,0.64,-105.30895,-185.18857)">
        <path
           style="fill:#f15632;fill-opacity:1;stroke:none;stroke-dasharray:none;stroke-opacity:1"
           inkscape:connector-curvature="0"
           id="path4411"
           d="m 264,0 60,0 c 11.0457,0 20,8.954305 20,20 l 0,60 c 0,11.0457 -8.9543,20 -20,20 l -60,0 c -11.0457,0 -20,-8.9543 -20,-20 l 0,-60 C 244,8.954305 252.9543,0 264,0 Z" />
        <circle
           style="fill:#ffffff;fill-opacity:1;stroke:none;stroke-dasharray:none;stroke-opacity:1"
           id="circle4413"
           r="12.50002"
           cy="50"
           cx="294" />
      </g>
    </g>
  </g>
  <text
     xml:space="preserve"
     style="font-style:normal;font-variant:normal;font-weight:600;font-stretch:normal;font-size:18px;line-height:110.00000238%;font-family:Montserrat;-inkscape-font-specification:'Montserrat, Semi-Bold';text-align:start;letter-spacing:0px;word-spacing:0px;writing-mode:lr-tb;text-anchor:start;fill:#000000;fill-opacity:1;stroke:none;stroke-width:1px;stroke-linecap:butt;stroke-linejoin:miter;stroke-opacity:1"
     x="36.407848"
     y="-126.6"
     id="text3395"
     sodipodi:linespacing="110%"><tspan
       sodipodi:role="line"
       id="tspan3397"
       x="36.407848"
       y="-126.6"
       style="font-style:normal;font-variant:normal;font-weight:600;font-stretch:normal;font-size:18px;line-height:110.00000238%;font-family:Montserrat;-inkscape-font-specification:'Montserrat, Semi-Bold';text-align:start;writing-mode:lr-tb;text-anchor:start">PROB</tspan><tspan
       sodipodi:role="line"
       x="36.407848"
       y="-106.8"
       id="tspan3399"
       style="font-style:normal;font-variant:normal;font-weight:600;font-stretch:normal;font-size:18px;line-height:110.00000238%;font-family:Montserrat;-inkscape-font-specification:'Montserrat, Semi-Bold';text-align:start;writing-mode:lr-tb;text-anchor:start">TORCH</tspan></text>
</svg>
