<?xml version="1.0" encoding="UTF-8" standalone="no"?>
<svg
   xmlns:dc="http://purl.org/dc/elements/1.1/"
   xmlns:cc="http://creativecommons.org/ns#"
   xmlns:rdf="http://www.w3.org/1999/02/22-rdf-syntax-ns#"
   xmlns:svg="http://www.w3.org/2000/svg"
   xmlns="http://www.w3.org/2000/svg"
   xmlns:sodipodi="http://sodipodi.sourceforge.net/DTD/sodipodi-0.dtd"
   xmlns:inkscape="http://www.inkscape.org/namespaces/inkscape"
   version="1.1"
   viewBox="-6 -143 107.39741 40"
   width="107.39741pt"
   height="40pt"
   id="svg3420"
   inkscape:version="0.91 r13725"
   sodipodi:docname="probtorch-logo.svg">
  <sodipodi:namedview
     pagecolor="#ffffff"
     bordercolor="#666666"
     borderopacity="1"
     objecttolerance="10"
     gridtolerance="10"
     guidetolerance="10"
     inkscape:pageopacity="0"
     inkscape:pageshadow="2"
     inkscape:window-width="2509"
     inkscape:window-height="1395"
     id="namedview3464"
     showgrid="false"
     inkscape:zoom="2.1653382"
     inkscape:cx="-108.71117"
     inkscape:cy="79.919112"
     inkscape:window-x="51"
     inkscape:window-y="1"
     inkscape:window-maximized="1"
     inkscape:current-layer="svg3420"
     fit-margin-top="0"
     fit-margin-left="0"
     fit-margin-right="0"
     fit-margin-bottom="0" />
  <metadata
     id="metadata3422"> Produced by OmniGraffle 7.5 
    <dc:date>2017-11-10 14:38:36 +0000</dc:date>
<rdf:RDF>
  <cc:Work
     rdf:about="">
    <dc:format>image/svg+xml</dc:format>
    <dc:type
       rdf:resource="http://purl.org/dc/dcmitype/StillImage" />
    <dc:title></dc:title>
  </cc:Work>
</rdf:RDF>
</metadata>
  <defs
     id="defs3424" />
  <g
     transform="matrix(0.259778,0,0,0.29156051,-19.209984,-104.99646)"
     id="g4381">
    <g
       transform="matrix(0.67962274,-0.40777366,0.67962274,0.40777366,52.062514,-96.79194)"
       id="g4383">
      <path
         d="m 14,0 60,0 c 11.0457,0 20,8.954305 20,20 l 0,60 c 0,11.0457 -8.9543,20 -20,20 l -60,0 C 2.954305,100 -6,91.0457 -6,80 L -6,20 C -6,8.954305 2.954305,0 14,0 Z"
         id="path4385"
         inkscape:connector-curvature="0"
         style="fill:#f15632;fill-opacity:1;stroke:none;stroke-dasharray:none;stroke-opacity:1" />
      <circle
         cx="44"
         cy="50"
         r="12.50002"
         id="circle4387"
         style="fill:#ffffff;fill-opacity:1;stroke:none;stroke-dasharray:none;stroke-opacity:1" />
      <circle
         cx="69"
         cy="25"
         r="12.50002"
         id="circle4389"
         style="fill:#ffffff;fill-opacity:1;stroke:none;stroke-dasharray:none;stroke-opacity:1" />
      <circle
         cx="19"
         cy="25"
         r="12.50002"
         id="circle4391"
         style="fill:#ffffff;fill-opacity:1;stroke:none;stroke-dasharray:none;stroke-opacity:1" />
      <circle
         cx="19"
         cy="75"
         r="12.50002"
         id="circle4393"
         style="fill:#ffffff;fill-opacity:1;stroke:none;stroke-dasharray:none;stroke-opacity:1" />
      <circle
         cx="69"
         cy="75"
         r="12.50002"
         id="circle4395"
         style="fill:#ffffff;fill-opacity:1;stroke:none;stroke-dasharray:none;stroke-opacity:1" />
    </g>
    <g
       id="g4397">
      <g
         id="g4399"
         transform="matrix(0.64,-0.38932229,0,0.64,40.883055,-5.2211694)">
        <path
           style="fill:#f15632;fill-opacity:1;stroke:none;stroke-dasharray:none;stroke-opacity:1"
           inkscape:connector-curvature="0"
           id="path4401"
           d="m 139,0 60,0 c 11.0457,0 20,8.954305 20,20 l 0,60 c 0,11.0457 -8.9543,20 -20,20 l -60,0 c -11.0457,0 -20,-8.9543 -20,-20 l 0,-60 C 119,8.954305 127.9543,0 139,0 Z" />
        <circle
           style="fill:#ffffff;fill-opacity:1;stroke:none;stroke-dasharray:none;stroke-opacity:1"
           id="circle4403"
           r="12.50002"
           cy="50"
           cx="169" />
        <circle
           style="fill:#ffffff;fill-opacity:1;stroke:none;stroke-dasharray:none;stroke-opacity:1"
           id="circle4405"
           r="12.50002"
           cy="25"
           cx="194" />
        <circle
           style="fill:#ffffff;fill-opacity:1;stroke:none;stroke-dasharray:none;stroke-opacity:1"
           id="circle4407"
           r="12.50002"
           cy="75"
           cx="144" />
      </g>
      <g
         id="g4409"
         transform="matrix(0.64,0.38845852,0,0.64,-105.30895,-185.18857)">
        <path
           style="fill:#f15632;fill-opacity:1;stroke:none;stroke-dasharray:none;stroke-opacity:1"
           inkscape:connector-curvature="0"
           id="path4411"
           d="m 264,0 60,0 c 11.0457,0 20,8.954305 20,20 l 0,60 c 0,11.0457 -8.9543,20 -20,20 l -60,0 c -11.0457,0 -20,-8.9543 -20,-20 l 0,-60 C 244,8.954305 252.9543,0 264,0 Z" />
        <circle
           style="fill:#ffffff;fill-opacity:1;stroke:none;stroke-dasharray:none;stroke-opacity:1"
           id="circle4413"
           r="12.50002"
           cy="50"
           cx="294" />
      </g>
    </g>
  </g>
  <g
     style="font-style:normal;font-variant:normal;font-weight:600;font-stretch:normal;font-size:18px;line-height:110.00000238%;font-family:Montserrat;-inkscape-font-specification:'Montserrat, Semi-Bold';text-align:start;letter-spacing:0px;word-spacing:0px;writing-mode:lr-tb;text-anchor:start;fill:#000000;fill-opacity:1;stroke:none;stroke-width:1px;stroke-linecap:butt;stroke-linejoin:miter;stroke-opacity:1"
     id="text3395">
    <path
       d="m 43.283848,-139.2 -5.184,0 0,12.6 2.34,0 0,-3.636 2.844,0 c 3.312,0 5.364,-1.71 5.364,-4.482 0,-2.79 -2.052,-4.482 -5.364,-4.482 z m -0.108,6.984 -2.736,0 0,-5.004 2.736,0 c 2.052,0 3.114,0.918 3.114,2.502 0,1.584 -1.062,2.502 -3.114,2.502 z"
       style="font-style:normal;font-variant:normal;font-weight:600;font-stretch:normal;font-size:18px;line-height:110.00000238%;font-family:Montserrat;-inkscape-font-specification:'Montserrat, Semi-Bold';text-align:start;writing-mode:lr-tb;text-anchor:start"
       id="path3475" />
    <path
       d="m 61.766192,-126.6 -2.898,-4.14 c 1.71,-0.666 2.682,-2.07 2.682,-3.978 0,-2.79 -2.052,-4.482 -5.364,-4.482 l -5.184,0 0,12.6 2.34,0 0,-3.672 2.844,0 c 0.162,0 0.324,0 0.486,-0.018 l 2.574,3.69 2.52,0 z m -2.574,-8.118 c 0,1.584 -1.062,2.52 -3.114,2.52 l -2.736,0 0,-5.022 2.736,0 c 2.052,0 3.114,0.918 3.114,2.502 z"
       style="font-style:normal;font-variant:normal;font-weight:600;font-stretch:normal;font-size:18px;line-height:110.00000238%;font-family:Montserrat;-inkscape-font-specification:'Montserrat, Semi-Bold';text-align:start;writing-mode:lr-tb;text-anchor:start"
       id="path3477" />
    <path
       d="m 70.03663,-126.42 c 3.906,0 6.786,-2.736 6.786,-6.48 0,-3.744 -2.88,-6.48 -6.786,-6.48 -3.906,0 -6.786,2.754 -6.786,6.48 0,3.726 2.88,6.48 6.786,6.48 z m 0,-2.052 c -2.538,0 -4.428,-1.854 -4.428,-4.428 0,-2.574 1.89,-4.428 4.428,-4.428 2.538,0 4.428,1.854 4.428,4.428 0,2.574 -1.89,4.428 -4.428,4.428 z"
       style="font-style:normal;font-variant:normal;font-weight:600;font-stretch:normal;font-size:18px;line-height:110.00000238%;font-family:Montserrat;-inkscape-font-specification:'Montserrat, Semi-Bold';text-align:start;writing-mode:lr-tb;text-anchor:start"
       id="path3479" />
    <path
       d="m 88.26613,-133.152 c 0.972,-0.522 1.62,-1.476 1.62,-2.772 0,-1.998 -1.62,-3.276 -4.644,-3.276 l -5.904,0 0,12.6 6.264,0 c 3.24,0 4.932,-1.26 4.932,-3.42 0,-1.638 -0.918,-2.7 -2.268,-3.132 z m -3.276,-4.212 c 1.62,0 2.538,0.576 2.538,1.746 0,1.152 -0.918,1.728 -2.538,1.728 l -3.312,0 0,-3.474 3.312,0 z m 0.468,8.928 -3.78,0 0,-3.636 3.78,0 c 1.764,0 2.718,0.558 2.718,1.818 0,1.26 -0.954,1.818 -2.718,1.818 z"
       style="font-style:normal;font-variant:normal;font-weight:600;font-stretch:normal;font-size:18px;line-height:110.00000238%;font-family:Montserrat;-inkscape-font-specification:'Montserrat, Semi-Bold';text-align:start;writing-mode:lr-tb;text-anchor:start"
       id="path3481" />
    <path
       d="m 40.655848,-106.8 2.34,0 0,-10.62 4.176,0 0,-1.98 -10.692,0 0,1.98 4.176,0 0,10.62 z"
       style="font-style:normal;font-variant:normal;font-weight:600;font-stretch:normal;font-size:18px;line-height:110.00000238%;font-family:Montserrat;-inkscape-font-specification:'Montserrat, Semi-Bold';text-align:start;writing-mode:lr-tb;text-anchor:start"
       id="path3483" />
    <path
       d="m 54.638192,-106.62 c 3.906,0 6.786,-2.736 6.786,-6.48 0,-3.744 -2.88,-6.48 -6.786,-6.48 -3.906,0 -6.786,2.754 -6.786,6.48 0,3.726 2.88,6.48 6.786,6.48 z m 0,-2.052 c -2.538,0 -4.428,-1.854 -4.428,-4.428 0,-2.574 1.89,-4.428 4.428,-4.428 2.538,0 4.428,1.854 4.428,4.428 0,2.574 -1.89,4.428 -4.428,4.428 z"
       style="font-style:normal;font-variant:normal;font-weight:600;font-stretch:normal;font-size:18px;line-height:110.00000238%;font-family:Montserrat;-inkscape-font-specification:'Montserrat, Semi-Bold';text-align:start;writing-mode:lr-tb;text-anchor:start"
       id="path3485" />
    <path
       d="m 74.703692,-106.8 -2.898,-4.14 c 1.71,-0.666 2.682,-2.07 2.682,-3.978 0,-2.79 -2.052,-4.482 -5.364,-4.482 l -5.184,0 0,12.6 2.34,0 0,-3.672 2.844,0 c 0.162,0 0.324,0 0.486,-0.018 l 2.574,3.69 2.52,0 z m -2.574,-8.118 c 0,1.584 -1.062,2.52 -3.114,2.52 l -2.736,0 0,-5.022 2.736,0 c 2.052,0 3.114,0.918 3.114,2.502 z"
       style="font-style:normal;font-variant:normal;font-weight:600;font-stretch:normal;font-size:18px;line-height:110.00000238%;font-family:Montserrat;-inkscape-font-specification:'Montserrat, Semi-Bold';text-align:start;writing-mode:lr-tb;text-anchor:start"
       id="path3487" />
    <path
       d="m 82.92013,-106.62 c 2.07,0 3.834,-0.738 5.004,-2.106 l -1.512,-1.44 c -0.918,1.008 -2.052,1.494 -3.366,1.494 -2.61,0 -4.5,-1.836 -4.5,-4.428 0,-2.592 1.89,-4.428 4.5,-4.428 1.314,0 2.448,0.486 3.366,1.476 l 1.512,-1.422 c -1.17,-1.368 -2.934,-2.106 -4.986,-2.106 -3.87,0 -6.75,2.718 -6.75,6.48 0,3.762 2.88,6.48 6.732,6.48 z"
       style="font-style:normal;font-variant:normal;font-weight:600;font-stretch:normal;font-size:18px;line-height:110.00000238%;font-family:Montserrat;-inkscape-font-specification:'Montserrat, Semi-Bold';text-align:start;writing-mode:lr-tb;text-anchor:start"
       id="path3489" />
    <path
       d="m 99.057411,-119.4 0,5.202 -6.516,0 0,-5.202 -2.34,0 0,12.6 2.34,0 0,-5.4 6.516,0 0,5.4 2.339999,0 0,-12.6 -2.339999,0 z"
       style="font-style:normal;font-variant:normal;font-weight:600;font-stretch:normal;font-size:18px;line-height:110.00000238%;font-family:Montserrat;-inkscape-font-specification:'Montserrat, Semi-Bold';text-align:start;writing-mode:lr-tb;text-anchor:start"
       id="path3491" />
  </g>
</svg>
